<svg xmlns="http://www.w3.org/2000/svg" width="640" height="640" viewBox="0 0 640 640" version="1.1">
	<path fill-opacity="0.231" d="M 448.518 168.097 C 432.578 172.479, 419.216 176.387, 418.826 176.782 C 417.792 177.828, 399.241 210.450, 399.497 210.773 C 399.615 210.923, 407.631 208.849, 417.309 206.164 L 434.905 201.283 433.553 203.891 C 432.810 205.326, 411.418 242.725, 386.015 287 C 360.613 331.275, 335.506 375.038, 330.221 384.250 C 324.937 393.462, 320.352 401, 320.033 401 C 319.713 401, 311.148 386.612, 301 369.026 C 290.851 351.441, 282.220 337.380, 281.820 337.780 C 281.023 338.577, 263.038 369.821, 262.706 370.986 C 262.425 371.970, 319.229 471, 320.074 471 C 320.444 471, 340.210 436.913, 363.997 395.250 C 387.784 353.587, 420.129 296.940, 435.873 269.366 C 451.618 241.793, 464.628 219.346, 464.785 219.485 C 464.942 219.624, 467.089 227.334, 469.556 236.619 C 472.023 245.903, 474.172 253.919, 474.331 254.432 C 474.491 254.945, 479.105 247.520, 484.585 237.931 L 494.549 220.498 486.606 190.249 C 482.238 173.612, 478.402 160.029, 478.082 160.065 C 477.762 160.101, 464.458 163.715, 448.518 168.097 M 265.800 259.750 C 264.969 260.712, 253.360 280.625, 240.001 304 C 213.677 350.059, 191.044 389.498, 162.336 439.327 C 152.251 456.832, 144 471.344, 144 471.577 C 144 471.810, 152.946 472, 163.880 472 L 183.760 472 219.737 409.250 C 239.524 374.738, 261.516 336.265, 268.607 323.755 C 275.698 311.246, 281.725 301.023, 282 301.039 C 282.275 301.055, 290.825 315.660, 301 333.495 C 311.175 351.329, 319.725 365.931, 320 365.942 C 320.911 365.980, 339.506 331.937, 339.197 330.798 C 338.708 328.996, 299.861 261.673, 298.201 259.750 C 296.890 258.231, 294.748 258, 282 258 C 269.251 258, 267.110 258.231, 265.800 259.750 M 414.240 343.652 C 402.365 364.172, 399 370.261, 399 371.227 C 399 371.815, 411.899 394.729, 427.665 422.148 L 456.330 472 476.165 472 C 487.074 472, 496 471.803, 496 471.563 C 496 471.142, 486.756 454.962, 448.542 388.500 C 438.739 371.450, 428.264 353.225, 425.265 348 C 422.265 342.775, 419.449 338.118, 419.007 337.652 C 418.565 337.185, 416.420 339.885, 414.240 343.652" stroke="none" fill="black" fill-rule="evenodd"/>
	<path fill-opacity="0.204" d="M 446.765 168.884 L 419.029 176.554 409.515 193.292 C 400.022 209.992, 399.218 211.602, 400.881 210.574 C 402.286 209.705, 434.443 201.110, 434.832 201.499 C 435.025 201.692, 426.829 216.396, 416.619 234.175 C 406.408 251.954, 380.604 296.980, 359.277 334.234 C 337.950 371.487, 320.266 401.975, 319.981 401.984 C 319.695 401.993, 318.034 399.413, 316.289 396.250 C 314.543 393.087, 306.170 378.460, 297.681 363.745 L 282.247 336.990 272.510 354.084 C 265.052 367.178, 262.976 371.608, 263.637 373.019 C 265.607 377.220, 319.541 470.925, 320 470.943 C 320.275 470.954, 352.854 414.271, 392.399 344.981 C 460.249 226.095, 465.991 216.402, 466.006 220.750 C 466.028 227.651, 474.747 254.310, 476.214 251.962 C 477.059 250.608, 481.456 242.988, 485.983 235.030 L 494.215 220.560 489.979 204.530 C 487.648 195.713, 484.169 182.313, 482.247 174.750 C 479.103 162.382, 478.538 161.011, 476.626 161.107 C 475.457 161.166, 462.019 164.665, 446.765 168.884 M 265.689 259.750 C 233.167 316.596, 147.282 466.268, 144.327 471.250 C 144.082 471.663, 152.796 471.995, 163.691 471.988 L 183.500 471.976 208.500 428.358 C 222.250 404.368, 244.163 366.019, 257.195 343.138 C 270.227 320.257, 281.293 301.402, 281.786 301.238 C 282.279 301.074, 290.946 315.353, 301.045 332.969 C 311.144 350.586, 319.669 365, 319.989 365 C 321.089 365, 338.467 333.500, 338.471 331.500 C 338.473 330.400, 329.321 313.637, 318.133 294.250 L 297.792 259 281.955 259 C 273.245 259, 265.925 259.337, 265.689 259.750 M 408.582 354.009 C 403.226 363.371, 398.991 371.399, 399.172 371.849 C 399.352 372.298, 412.325 395.005, 428 422.306 L 456.500 471.946 476.309 471.973 C 487.204 471.988, 495.927 471.663, 495.693 471.250 C 495.460 470.837, 486.354 454.975, 475.458 436 C 436.370 367.930, 418.862 337.529, 418.594 337.261 C 418.444 337.110, 413.938 344.647, 408.582 354.009" stroke="none" fill="black" fill-rule="evenodd"/>
	<path fill-opacity="0.109" d="M 337.453 372.750 C 320.360 402.688, 321.400 400.796, 322.742 399.500 C 323.311 398.950, 326.907 392.992, 330.731 386.259 C 334.556 379.527, 338.053 374.352, 338.503 374.759 C 338.953 375.167, 339.042 375.011, 338.702 374.412 C 338.361 373.814, 340.801 368.639, 344.122 362.912 C 351.405 350.356, 353.194 347, 352.603 347 C 352.357 347, 345.539 358.587, 337.453 372.750 M 267.597 363.149 L 262.980 371.297 266.581 377.899 C 268.562 381.529, 270.659 384.950, 271.242 385.500 C 271.824 386.050, 270.841 383.897, 269.057 380.716 C 265.993 375.250, 265.901 374.800, 267.391 372.526 C 268.258 371.202, 269.164 368.180, 269.404 365.810 C 269.908 360.819, 270.916 357.830, 271.890 358.432 C 272.265 358.664, 272.571 357.986, 272.571 356.927 C 272.571 354.276, 272.750 354.053, 267.597 363.149" stroke="none" fill="black" fill-rule="evenodd"/>
</svg>